# 3ds Max Wavefront OBJ Exporter v0.97b - (c)2007 guruware
# ì¬‚µ‚½ƒtƒ@ƒCƒ‹ : 23.03.2019 15:17:14

mtllib Tree_A.mtl

#
# object GeoSphere153
#

v  -6979.6382 1741.8865 -594.7374
v  -7233.7915 1765.8287 -153.0898
v  -6800.5894 1498.2341 -183.8907
v  -6787.4390 1271.6040 -640.7120
v  -7212.5137 1399.1334 -892.2421
v  -7488.3750 1704.5811 -590.8750
v  -7623.7427 1437.8728 -177.6414
v  -7198.6680 1310.3434 73.8887
v  -6922.8066 1004.8958 -227.4783
v  -7177.3901 943.6481 -665.2636
v  -7610.5923 1211.2427 -634.4626
v  -7431.5435 967.5903 -223.6160
# 12 vertices

vn 0.5212 0.8142 0.2558
vn 0.9071 0.3869 -0.1658
vn 0.5509 0.3012 -0.7783
vn -0.0551 0.6756 -0.7352
vn -0.0735 0.9927 -0.0961
vn -0.3799 0.3889 0.8393
vn 0.6007 -0.2168 0.7696
vn 0.6304 -0.7298 -0.2645
vn -0.3318 -0.4411 -0.8339
vn -0.9562 0.2503 -0.1517
vn 0.3318 0.4411 0.8339
vn 0.9562 -0.2503 0.1517
vn 0.3799 -0.3889 -0.8393
vn -0.6007 0.2168 -0.7696
vn -0.6304 0.7298 0.2645
vn 0.0551 -0.6756 0.7352
vn 0.0735 -0.9927 0.0961
vn -0.5212 -0.8142 -0.2558
vn -0.9071 -0.3869 0.1658
vn -0.5509 -0.3012 0.7783
# 20 vertex normals

vt 0.6000 1.0000 136.1938
vt 0.5000 0.6476 136.1938
vt 0.7000 0.6476 136.1938
vt 0.8000 1.0000 136.1938
vt 0.9000 0.6476 136.1938
vt 0.0000 1.0000 136.1938
vt -0.1000 0.6476 136.1938
vt 0.1000 0.6476 136.1938
vt 0.2000 1.0000 136.1938
vt 0.3000 0.6476 136.1938
vt 0.4000 1.0000 136.1938
vt 0.4000 0.3524 136.1938
vt 0.6000 0.3524 136.1938
vt 0.8000 0.3524 136.1938
vt -0.2000 0.3524 136.1938
vt 0.0000 0.3524 136.1938
vt 0.2000 0.3524 136.1938
vt 0.7000 0.0000 136.1938
vt -0.1000 0.0000 136.1938
vt 0.1000 0.0000 136.1938
vt 0.3000 0.0000 136.1938
vt 0.5000 0.0000 136.1938
# 22 texture coords

o GeoSphere153
g GeoSphere153
usemtl tree
s off
f 1/1/1 2/2/1 3/3/1 
f 1/4/2 3/3/2 4/5/2 
f 1/6/3 4/7/3 5/8/3 
f 1/9/4 5/8/4 6/10/4 
f 1/11/5 6/10/5 2/2/5 
f 2/2/6 7/12/6 8/13/6 
f 3/3/7 8/13/7 9/14/7 
f 4/7/8 9/15/8 10/16/8 
f 5/8/9 10/16/9 11/17/9 
f 6/10/10 11/17/10 7/12/10 
f 8/13/11 3/3/11 2/2/11 
f 9/14/12 4/5/12 3/3/12 
f 10/16/13 5/8/13 4/7/13 
f 11/17/14 6/10/14 5/8/14 
f 7/12/15 2/2/15 6/10/15 
f 12/18/16 9/14/16 8/13/16 
f 12/19/17 10/16/17 9/15/17 
f 12/20/18 11/17/18 10/16/18 
f 12/21/19 7/12/19 11/17/19 
f 12/22/20 8/13/20 7/12/20 
# 20 faces

#
# object GeoSphere154
#

v  -7873.9038 2095.0457 -487.1771
v  -8287.9102 1832.6041 145.8167
v  -7424.1333 1832.0963 43.3083
v  -7228.9604 1832.0962 -612.1693
v  -7792.0449 1650.3281 -1000.3436
v  -8515.2920 1832.6041 -499.1953
v  -8506.3896 1250.8292 -139.7490
v  -7943.3057 1250.8292 248.4253
v  -7246.0952 1060.7504 -240.3490
v  -7473.4766 1060.7504 -885.3615
v  -8311.2168 1250.8292 -795.2262
v  -7957.7100 891.2725 -333.1714
# 12 vertices

vn 0.0492 0.9108 0.4098
vn 0.3944 0.9114 0.1174
vn 0.1873 0.7569 -0.6261
vn -0.2759 0.7042 -0.6542
vn -0.3775 0.9164 0.1331
vn -0.5575 -0.1876 0.8087
vn 0.5307 -0.1819 0.8278
vn 0.9280 -0.1783 -0.3271
vn -0.1640 -0.2735 -0.9478
vn -0.9414 -0.1876 -0.2803
vn 0.1146 0.2380 0.9645
vn 0.9520 0.1155 0.2835
vn 0.5351 0.1262 -0.8353
vn -0.5111 0.2406 -0.8251
vn -0.9264 0.1876 0.3266
vn 0.1334 -0.8444 0.5188
vn 0.2413 -0.9667 -0.0851
vn -0.2430 -0.8469 -0.4730
vn -0.5818 -0.7947 -0.1732
vn -0.3446 -0.7947 0.4998
# 20 vertex normals

vt 0.6000 1.0000 136.1938
vt 0.5000 0.6476 136.1938
vt 0.7000 0.6476 136.1938
vt 0.8000 1.0000 136.1938
vt 0.9000 0.6476 136.1938
vt 0.0000 1.0000 136.1938
vt -0.1000 0.6476 136.1938
vt 0.1000 0.6476 136.1938
vt 0.2000 1.0000 136.1938
vt 0.3000 0.6476 136.1938
vt 0.4000 1.0000 136.1938
vt 0.4000 0.3524 136.1938
vt 0.6000 0.3524 136.1938
vt 0.8000 0.3524 136.1938
vt -0.2000 0.3524 136.1938
vt 0.0000 0.3524 136.1938
vt 0.2000 0.3524 136.1938
vt 0.7000 0.0000 136.1938
vt -0.1000 0.0000 136.1938
vt 0.1000 0.0000 136.1938
vt 0.3000 0.0000 136.1938
vt 0.5000 0.0000 136.1938
# 22 texture coords

o GeoSphere154
g GeoSphere154
usemtl tree
s off
f 13/23/21 14/24/21 15/25/21 
f 13/26/22 15/25/22 16/27/22 
f 13/28/23 16/29/23 17/30/23 
f 13/31/24 17/30/24 18/32/24 
f 13/33/25 18/32/25 14/24/25 
f 14/24/26 19/34/26 20/35/26 
f 15/25/27 20/35/27 21/36/27 
f 16/29/28 21/37/28 22/38/28 
f 17/30/29 22/38/29 23/39/29 
f 18/32/30 23/39/30 19/34/30 
f 20/35/31 15/25/31 14/24/31 
f 21/36/32 16/27/32 15/25/32 
f 22/38/33 17/30/33 16/29/33 
f 23/39/34 18/32/34 17/30/34 
f 19/34/35 14/24/35 18/32/35 
f 24/40/36 21/36/36 20/35/36 
f 24/41/37 22/38/37 21/37/37 
f 24/42/38 23/39/38 22/38/38 
f 24/43/39 19/34/39 23/39/39 
f 24/44/40 20/35/40 19/34/40 
# 20 faces

#
# object Gengon092
#

v  -7756.5947 725.7416 -106.2070
v  -7805.1553 725.7416 -40.5408
v  -7592.8340 725.7416 -141.4434
v  -7859.7046 1025.3276 -310.5435
v  -7691.0479 1025.3276 -348.1066
v  -7938.1157 1025.3276 -475.5378
v  -7839.9019 725.7416 -268.8746
v  -7561.5918 586.7599 -138.9399
v  -7822.9443 602.0049 -14.7359
v  -7354.1147 1042.7095 -509.8457
v  -7391.1855 1104.6459 -476.1594
v  -7332.8408 1172.8990 -429.1134
v  -7276.0132 1111.7766 -444.3565
v  -8291.6963 1321.4324 210.9601
v  -8239.0713 1322.7748 169.8224
v  -8260.5654 1322.7748 91.8879
v  -8325.9482 1321.4324 103.1758
v  -7516.0117 229.6694 -161.6732
v  -7758.2207 229.6694 110.0911
v  -7788.6357 229.6694 -268.6975
v  -7848.4590 602.0049 -299.5098
v  -7454.2778 -0.0001 -173.0244
v  -7779.2573 -0.0001 169.2299
v  -7829.3330 -0.0001 -316.4853
v  -7745.2974 -0.0001 -92.7170
v  -8091.4126 942.6228 -79.6612
v  -8069.9185 942.6228 -1.7269
v  -8187.7251 885.2003 -53.6742
v  -8157.4741 885.2003 56.0111
v  -7707.2407 1060.7321 139.6986
v  -7538.5845 1060.7321 102.1355
v  -7638.1602 1149.8274 -107.3943
v  -7806.8169 1149.8274 -69.8312
v  -7563.9902 891.7767 -11.9354
v  -7732.6470 883.0302 25.6277
v  -7663.5664 991.9327 -221.4652
v  -7832.2227 991.9327 -183.9021
v  -7520.2407 740.8580 -205.9768
v  -7659.3813 740.8580 -291.0333
v  -7495.2964 623.4576 -197.1037
v  -7664.1694 636.3352 -317.0724
v  -7498.0747 832.9277 -261.3274
v  -7567.5439 764.6742 -331.7826
v  -7441.2471 771.8050 -276.5705
v  -7530.4736 702.7377 -365.4687
# 45 vertices

vn 0.0000 1.0000 -0.0000
vn 0.4265 0.1120 0.8975
vn 0.4318 0.1242 0.8934
vn 0.0853 0.5150 -0.8529
vn 0.2832 0.4716 -0.8351
vn -0.0210 0.9998 0.0058
vn -0.0195 0.9998 0.0062
vn 0.4291 -0.0027 0.9033
vn 0.7040 0.3327 0.6274
vn 0.4887 0.0063 -0.8724
vn 0.3634 0.1053 -0.9257
vn -0.9859 -0.1418 0.0883
vn -0.9852 -0.1518 0.0791
vn 0.7362 0.1655 0.6562
vn 0.7208 0.1102 0.6844
vn 0.3624 0.1279 -0.9232
vn 0.3537 0.1408 -0.9247
vn -0.9906 0.1112 0.0795
vn -0.9830 0.1531 0.1013
vn 0.0000 -1.0000 -0.0000
vn 0.6093 0.7875 -0.0927
vn 0.6098 0.7745 -0.1682
vn -0.4264 0.2451 -0.8707
vn -0.4054 0.2871 -0.8679
vn -0.6380 -0.7679 0.0572
vn -0.5641 -0.8109 0.1556
vn 0.2697 0.1593 0.9497
vn 0.4062 0.2611 0.8757
vn 0.8451 0.4812 -0.2331
vn -0.3689 0.2088 -0.9057
vn -0.1666 0.3430 -0.9244
vn -0.8978 -0.3642 0.2476
vn -0.8815 -0.3800 0.2801
vn 0.5918 -0.0978 0.8002
vn 0.6148 -0.0892 0.7836
vn 0.0797 0.9304 0.3578
vn 0.4160 -0.4200 -0.8066
vn -0.8901 0.0046 0.4558
vn -0.9032 -0.0000 0.4292
vn 0.1643 -0.6243 0.7637
vn 0.1975 -0.6472 0.7363
vn 0.9654 0.2102 -0.1541
vn 0.9183 0.1317 -0.3734
vn 0.0543 0.9684 0.2436
vn -0.9443 -0.1147 0.3084
vn -0.7037 -0.7097 -0.0344
vn 0.2068 -0.5686 0.7962
vn 0.1816 -0.5495 0.8155
vn 0.9179 0.1245 -0.3767
vn 0.9155 0.1213 -0.3835
vn -0.1747 0.5949 -0.7846
vn -0.9188 -0.1117 0.3786
vn -0.9158 -0.1278 0.3809
vn -0.0754 0.9864 0.1462
vn -0.0691 0.9912 0.1131
vn 0.6039 0.1499 0.7829
vn 0.6297 0.1907 0.7530
vn 0.1408 -0.9299 -0.3399
vn 0.1877 -0.9130 -0.3622
vn -0.1384 0.2470 -0.9591
vn -0.1372 0.2454 -0.9597
vn -0.4396 0.5382 0.7191
vn -0.3946 0.8231 -0.4083
vn 0.6124 0.1882 0.7678
vn 0.5557 0.3260 0.7648
vn 0.2584 -0.8521 -0.4552
vn 0.7751 -0.4937 -0.3944
vn -0.4446 0.2357 -0.8642
vn -0.4272 0.2211 -0.8767
vn -0.8021 0.5278 0.2795
vn -0.8139 0.5265 0.2456
vn 0.4546 0.2066 0.8664
vn 0.7650 -0.5436 -0.3455
vn 0.7671 -0.5421 -0.3431
vn -0.6549 0.0189 -0.7555
# 75 vertex normals

vt 0.5000 0.5000 0.0000
vt 1.0000 0.5000 0.0000
vt 0.2500 0.9330 0.0000
vt 0.2500 0.0670 0.0000
vt 0.3333 0.6667 0.0000
vt 0.3333 1.0000 0.0000
vt 0.0000 1.0000 0.0000
vt 0.0000 0.6667 0.0000
vt 0.6667 0.6667 0.0000
vt 0.6667 1.0000 0.0000
vt 1.0000 0.6667 0.0000
vt 1.0000 1.0000 0.0000
vt 0.3333 0.3333 0.0000
vt 0.0000 0.3333 0.0000
vt 0.6667 0.3333 0.0000
vt 1.0000 0.3333 0.0000
vt 0.3333 0.0000 0.0000
vt 0.0000 0.0000 0.0000
vt 0.6667 0.0000 0.0000
vt 1.0000 0.0000 0.0000
# 20 texture coords

o Gengon092
g Gengon092
usemtl treewood
s off
f 25/45/41 26/46/41 27/47/41 
f 28/45/41 29/47/41 30/48/41 
f 25/45/41 31/48/41 26/46/41 
f 32/49/42 27/50/42 26/51/42 
f 26/51/43 33/52/43 32/49/43 
f 34/53/44 35/54/44 36/50/44 
f 36/50/45 37/49/45 34/53/45 
f 38/55/46 39/56/46 40/54/46 
f 40/54/47 41/53/47 38/55/47 
f 42/57/48 32/49/48 33/52/48 
f 33/52/49 43/58/49 42/57/49 
f 44/59/50 45/53/50 32/49/50 
f 32/49/51 42/57/51 44/59/51 
f 43/60/52 33/55/52 45/53/52 
f 45/53/53 44/59/53 43/60/53 
f 46/61/54 42/57/54 43/58/54 
f 43/58/55 47/62/55 46/61/55 
f 48/63/56 44/59/56 42/57/56 
f 42/57/57 46/61/57 48/63/57 
f 47/64/58 43/60/58 44/59/58 
f 44/59/59 48/63/59 47/64/59 
f 47/46/60 49/45/60 46/47/60 
f 46/47/60 49/45/60 48/48/60 
f 48/48/60 49/45/60 47/46/60 
f 26/56/61 31/54/61 50/54/61 
f 50/54/62 51/56/62 26/56/62 
f 31/54/63 45/53/63 52/53/63 
f 52/53/64 50/54/64 31/54/64 
f 45/53/65 33/55/65 53/55/65 
f 53/55/66 52/53/66 45/53/66 
f 33/55/67 26/56/67 51/56/67 
f 51/56/68 53/55/68 33/55/68 
f 51/56/69 50/54/69 40/54/69 
f 40/54/69 39/56/69 51/56/69 
f 50/54/70 52/53/70 41/53/70 
f 41/53/71 40/54/71 50/54/71 
f 52/53/72 53/55/72 38/55/72 
f 38/55/73 41/53/73 52/53/73 
f 53/55/74 51/56/74 39/56/74 
f 39/56/75 38/55/75 53/55/75 
f 54/45/76 55/47/76 56/47/76 
f 56/47/76 57/45/76 54/45/76 
f 27/47/77 31/48/77 30/48/77 
f 30/48/77 29/47/77 27/47/77 
f 31/48/78 25/45/78 28/45/78 
f 28/45/79 30/48/79 31/48/79 
f 25/45/80 27/47/80 58/47/80 
f 58/47/81 59/45/81 25/45/81 
f 27/47/82 29/47/82 60/47/82 
f 60/47/83 58/47/83 27/47/83 
f 29/47/84 28/45/84 61/45/84 
f 61/45/84 60/47/84 29/47/84 
f 28/45/85 25/45/85 59/45/85 
f 59/45/86 61/45/86 28/45/86 
f 59/45/87 58/47/87 55/47/87 
f 55/47/88 54/45/88 59/45/88 
f 58/47/89 60/47/89 56/47/89 
f 56/47/90 55/47/90 58/47/90 
f 60/47/91 61/45/91 57/45/91 
f 57/45/91 56/47/91 60/47/91 
f 61/45/92 59/45/92 54/45/92 
f 54/45/93 57/45/93 61/45/93 
f 31/54/94 27/50/94 62/50/94 
f 62/50/95 63/54/95 31/54/95 
f 27/50/96 32/49/96 64/49/96 
f 64/49/97 62/50/97 27/50/97 
f 32/49/98 45/53/98 65/53/98 
f 65/53/99 64/49/99 32/49/99 
f 45/53/100 31/54/100 63/54/100 
f 63/54/101 65/53/101 45/53/101 
f 63/54/102 62/50/102 66/50/102 
f 66/50/103 67/54/103 63/54/103 
f 62/50/104 64/49/104 68/49/104 
f 68/49/105 66/50/105 62/50/105 
f 64/49/106 65/53/106 69/53/106 
f 69/53/107 68/49/107 64/49/107 
f 65/53/108 63/54/108 67/54/108 
f 67/54/109 69/53/109 65/53/109 
f 67/54/110 66/50/110 36/50/110 
f 36/50/111 35/54/111 67/54/111 
f 66/50/112 68/49/112 37/49/112 
f 37/49/112 36/50/112 66/50/112 
f 68/49/113 69/53/113 34/53/113 
f 34/53/114 37/49/114 68/49/114 
f 69/53/115 67/54/115 35/54/115 
f 35/54/115 34/53/115 69/53/115 
# 86 faces

#
# object GeoSphere155
#

v  -8377.5732 1861.1663 614.2463
v  -8478.9443 1320.5640 761.2953
v  -7954.2144 1535.6733 811.6596
v  -7863.6392 1883.7277 370.2926
v  -8332.3916 1883.7277 47.1485
v  -8712.6709 1535.6733 288.8014
v  -8496.4131 1009.0148 285.0786
v  -8027.6616 1009.0148 608.2227
v  -7647.3818 1357.0691 366.5698
v  -7881.1084 1572.1785 -105.9241
v  -8405.8389 1357.0690 -156.2883
v  -7982.4795 1031.5762 41.1248
# 12 vertices

vn -0.2097 0.2931 0.9328
vn 0.2670 0.7293 0.6299
vn -0.0260 0.9990 0.0377
vn -0.6837 0.7293 -0.0255
vn -0.7972 0.2931 0.5278
vn -0.3586 -0.7751 0.5202
vn 0.7056 -0.3388 0.6224
vn 0.8893 0.3671 -0.2728
vn -0.0614 0.3671 -0.9282
vn -0.8327 -0.3388 -0.4381
vn 0.0614 -0.3671 0.9282
vn 0.8327 0.3388 0.4381
vn 0.3586 0.7751 -0.5202
vn -0.7056 0.3388 -0.6224
vn -0.8893 -0.3671 0.2728
vn 0.6837 -0.7293 0.0255
vn 0.7972 -0.2931 -0.5278
vn 0.2097 -0.2931 -0.9328
vn -0.2670 -0.7293 -0.6299
vn 0.0260 -0.9990 -0.0377
# 20 vertex normals

vt 0.6000 1.0000 136.1938
vt 0.5000 0.6476 136.1938
vt 0.7000 0.6476 136.1938
vt 0.8000 1.0000 136.1938
vt 0.9000 0.6476 136.1938
vt 0.0000 1.0000 136.1938
vt -0.1000 0.6476 136.1938
vt 0.1000 0.6476 136.1938
vt 0.2000 1.0000 136.1938
vt 0.3000 0.6476 136.1938
vt 0.4000 1.0000 136.1938
vt 0.4000 0.3524 136.1938
vt 0.6000 0.3524 136.1938
vt 0.8000 0.3524 136.1938
vt -0.2000 0.3524 136.1938
vt 0.0000 0.3524 136.1938
vt 0.2000 0.3524 136.1938
vt 0.7000 0.0000 136.1938
vt -0.1000 0.0000 136.1938
vt 0.1000 0.0000 136.1938
vt 0.3000 0.0000 136.1938
vt 0.5000 0.0000 136.1938
# 22 texture coords

o GeoSphere155
g GeoSphere155
usemtl tree
s off
f 70/65/116 71/66/116 72/67/116 
f 70/68/117 72/67/117 73/69/117 
f 70/70/118 73/71/118 74/72/118 
f 70/73/119 74/72/119 75/74/119 
f 70/75/120 75/74/120 71/66/120 
f 71/66/121 76/76/121 77/77/121 
f 72/67/122 77/77/122 78/78/122 
f 73/71/123 78/79/123 79/80/123 
f 74/72/124 79/80/124 80/81/124 
f 75/74/125 80/81/125 76/76/125 
f 77/77/126 72/67/126 71/66/126 
f 78/78/127 73/69/127 72/67/127 
f 79/80/128 74/72/128 73/71/128 
f 80/81/129 75/74/129 74/72/129 
f 76/76/130 71/66/130 75/74/130 
f 81/82/131 78/78/131 77/77/131 
f 81/83/132 79/80/132 78/79/132 
f 81/84/133 80/81/133 79/80/133 
f 81/85/134 76/76/134 80/81/134 
f 81/86/135 77/77/135 76/76/135 
# 20 faces

